# xmcd
#
# Track frame offsets: 
#        150
#        16994
#        38860
#        59968
#        81522
#        101504
#        117243
#        138883
#        155402
#        179632
#        199767
#        219380
#
# Disc length: 3089 seconds
#
# Revision: 1
# Processed by: cddbd v1.5.2PL0 Copyright (c) Steve Scherf et al.
# Submitted via: ExactAudioCopy v0.95b4
#
DISCID=ad0c0f0c
DTITLE=Hisham Abbas - Gouwwa Fee Albi
DYEAR=2002
DGENRE=Egyptian
TTITLE0=Bil Leil
TTITLE1=Fainoh
TTITLE2=Haloh Min Hali
TTITLE3=Jamalik Khatar
TTITLE4=Chil Idak
TTITLE5=W Ana W Iyak
TTITLE6=Ramini
TTITLE7=Min Elli Jouwa Albi
TTITLE8=Waheshni
TTITLE9=Ad el Dounia
TTITLE10=Ah Ya Leil
TTITLE11=Oumi el Habiba
EXTD=
EXTT0=
EXTT1=
EXTT2=
EXTT3=
EXTT4=
EXTT5=
EXTT6=
EXTT7=
EXTT8=
EXTT9=
EXTT10=
EXTT11=
PLAYORDER=
